<mxfile host="drawio-plugin" modified="2022-10-21T18:12:05.142Z" agent="5.0 (X11; Linux x86_64) AppleWebKit/537.36 (KHTML, like Gecko) Chrome/98.0.4758.102 Safari/537.36" etag="Oz2-sRNIHwno4NbzR4ok" version="15.5.4" type="embed"><diagram id="ierNxM7DQVHxh4hlCwrf" name="Page-1"><mxGraphModel dx="866" dy="720" grid="1" gridSize="10" guides="1" tooltips="1" connect="1" arrows="1" fold="1" page="1" pageScale="1" pageWidth="850" pageHeight="1100" math="0" shadow="0"><root><mxCell id="0"/><mxCell id="1" parent="0"/><mxCell id="2" value="Interface" style="swimlane;fontStyle=0;childLayout=stackLayout;horizontal=1;startSize=30;horizontalStack=0;resizeParent=1;resizeParentMax=0;resizeLast=0;collapsible=1;marginBottom=0;fillColor=#fff2cc;strokeColor=#d6b656;" parent="1" vertex="1"><mxGeometry x="40" y="10" width="140" height="60" as="geometry"/></mxCell><mxCell id="3" value="method" style="text;strokeColor=none;fillColor=none;align=left;verticalAlign=middle;spacingLeft=4;spacingRight=4;overflow=hidden;points=[[0,0.5],[1,0.5]];portConstraint=eastwest;rotatable=0;" parent="2" vertex="1"><mxGeometry y="30" width="140" height="30" as="geometry"/></mxCell><mxCell id="4" value="Class" style="swimlane;fontStyle=0;childLayout=stackLayout;horizontal=1;startSize=30;horizontalStack=0;resizeParent=1;resizeParentMax=0;resizeLast=0;collapsible=1;marginBottom=0;fillColor=#d5e8d4;strokeColor=#82b366;" parent="1" vertex="1"><mxGeometry x="360" y="10" width="140" height="60" as="geometry"/></mxCell><mxCell id="5" value="method" style="text;strokeColor=none;fillColor=none;align=left;verticalAlign=middle;spacingLeft=4;spacingRight=4;overflow=hidden;points=[[0,0.5],[1,0.5]];portConstraint=eastwest;rotatable=0;" parent="4" vertex="1"><mxGeometry y="30" width="140" height="30" as="geometry"/></mxCell><mxCell id="6" value="" style="rounded=0;whiteSpace=wrap;html=1;fillColor=#f5f5f5;fontColor=#333333;strokeColor=#666666;" parent="1" vertex="1"><mxGeometry x="310" y="480" width="80" height="30" as="geometry"/></mxCell><mxCell id="7" value="Class" style="swimlane;fontStyle=0;childLayout=stackLayout;horizontal=1;startSize=30;horizontalStack=0;resizeParent=1;resizeParentMax=0;resizeLast=0;collapsible=1;marginBottom=0;fillColor=#d5e8d4;strokeColor=#82b366;" parent="1" vertex="1"><mxGeometry x="280" y="410" width="140" height="60" as="geometry"/></mxCell><mxCell id="8" value="method" style="text;strokeColor=none;fillColor=none;align=left;verticalAlign=middle;spacingLeft=4;spacingRight=4;overflow=hidden;points=[[0,0.5],[1,0.5]];portConstraint=eastwest;rotatable=0;" parent="7" vertex="1"><mxGeometry y="30" width="140" height="30" as="geometry"/></mxCell><mxCell id="9" value="Class" style="swimlane;fontStyle=0;childLayout=stackLayout;horizontal=1;startSize=30;horizontalStack=0;resizeParent=1;resizeParentMax=0;resizeLast=0;collapsible=1;marginBottom=0;fillColor=#d5e8d4;strokeColor=#82b366;" parent="1" vertex="1"><mxGeometry x="40" y="410" width="140" height="60" as="geometry"/></mxCell><mxCell id="10" value="method" style="text;strokeColor=none;fillColor=none;align=left;verticalAlign=middle;spacingLeft=4;spacingRight=4;overflow=hidden;points=[[0,0.5],[1,0.5]];portConstraint=eastwest;rotatable=0;" parent="9" vertex="1"><mxGeometry y="30" width="140" height="30" as="geometry"/></mxCell><mxCell id="13" value="" style="rounded=0;whiteSpace=wrap;html=1;fillColor=#f5f5f5;fontColor=#333333;strokeColor=#666666;" parent="1" vertex="1"><mxGeometry x="70" y="480" width="80" height="30" as="geometry"/></mxCell><mxCell id="14" value="Class" style="swimlane;fontStyle=0;childLayout=stackLayout;horizontal=1;startSize=30;horizontalStack=0;resizeParent=1;resizeParentMax=0;resizeLast=0;collapsible=1;marginBottom=0;fillColor=#d5e8d4;strokeColor=#82b366;" parent="1" vertex="1"><mxGeometry x="40" y="280" width="140" height="60" as="geometry"/></mxCell><mxCell id="15" value="method" style="text;strokeColor=none;fillColor=none;align=left;verticalAlign=middle;spacingLeft=4;spacingRight=4;overflow=hidden;points=[[0,0.5],[1,0.5]];portConstraint=eastwest;rotatable=0;" parent="14" vertex="1"><mxGeometry y="30" width="140" height="30" as="geometry"/></mxCell><mxCell id="16" value="client" style="rounded=0;whiteSpace=wrap;html=1;fillColor=#f5f5f5;fontColor=#333333;strokeColor=#666666;" parent="1" vertex="1"><mxGeometry x="70" y="240" width="80" height="30" as="geometry"/></mxCell><mxCell id="20" value="Class" style="swimlane;fontStyle=0;childLayout=stackLayout;horizontal=1;startSize=30;horizontalStack=0;resizeParent=1;resizeParentMax=0;resizeLast=0;collapsible=1;marginBottom=0;fillColor=#d5e8d4;strokeColor=#82b366;" parent="1" vertex="1"><mxGeometry x="280" y="280" width="140" height="60" as="geometry"/></mxCell><mxCell id="21" value="method" style="text;strokeColor=none;fillColor=none;align=left;verticalAlign=middle;spacingLeft=4;spacingRight=4;overflow=hidden;points=[[0,0.5],[1,0.5]];portConstraint=eastwest;rotatable=0;" parent="20" vertex="1"><mxGeometry y="30" width="140" height="30" as="geometry"/></mxCell><mxCell id="22" value="" style="rounded=0;whiteSpace=wrap;html=1;fillColor=#f5f5f5;fontColor=#333333;strokeColor=#666666;" parent="1" vertex="1"><mxGeometry x="310" y="240" width="80" height="30" as="geometry"/></mxCell><mxCell id="25" value="Class" style="swimlane;fontStyle=0;align=center;verticalAlign=top;childLayout=stackLayout;horizontal=1;startSize=26;horizontalStack=0;resizeParent=1;resizeParentMax=0;resizeLast=0;collapsible=1;marginBottom=0;fillColor=#d5e8d4;strokeColor=#82b366;" parent="1" vertex="1"><mxGeometry x="40" y="110" width="160" height="86" as="geometry"><mxRectangle x="380" y="-1050" width="70" height="26" as="alternateBounds"/></mxGeometry></mxCell><mxCell id="26" value="+ id: Long" style="text;strokeColor=none;fillColor=none;align=left;verticalAlign=top;spacingLeft=4;spacingRight=4;overflow=hidden;rotatable=0;points=[[0,0.5],[1,0.5]];portConstraint=eastwest;" parent="25" vertex="1"><mxGeometry y="26" width="160" height="26" as="geometry"/></mxCell><mxCell id="30" value="" style="line;strokeWidth=1;fillColor=none;align=left;verticalAlign=middle;spacingTop=-1;spacingLeft=3;spacingRight=3;rotatable=0;labelPosition=right;points=[];portConstraint=eastwest;" parent="25" vertex="1"><mxGeometry y="52" width="160" height="8" as="geometry"/></mxCell><mxCell id="32" value="+ execute(): void" style="text;strokeColor=none;fillColor=none;align=left;verticalAlign=top;spacingLeft=4;spacingRight=4;overflow=hidden;rotatable=0;points=[[0,0.5],[1,0.5]];portConstraint=eastwest;" parent="25" vertex="1"><mxGeometry y="60" width="160" height="26" as="geometry"/></mxCell><mxCell id="39" value="Class" style="swimlane;fontStyle=0;align=center;verticalAlign=top;childLayout=stackLayout;horizontal=1;startSize=26;horizontalStack=0;resizeParent=1;resizeParentMax=0;resizeLast=0;collapsible=1;marginBottom=0;fillColor=#d5e8d4;strokeColor=#82b366;" parent="1" vertex="1"><mxGeometry x="240" y="110" width="160" height="60" as="geometry"><mxRectangle x="380" y="-1050" width="70" height="26" as="alternateBounds"/></mxGeometry></mxCell><mxCell id="41" value="" style="line;strokeWidth=1;fillColor=none;align=left;verticalAlign=middle;spacingTop=-1;spacingLeft=3;spacingRight=3;rotatable=0;labelPosition=right;points=[];portConstraint=eastwest;" parent="39" vertex="1"><mxGeometry y="26" width="160" height="8" as="geometry"/></mxCell><mxCell id="42" value="+ execute(): void" style="text;strokeColor=none;fillColor=none;align=left;verticalAlign=top;spacingLeft=4;spacingRight=4;overflow=hidden;rotatable=0;points=[[0,0.5],[1,0.5]];portConstraint=eastwest;" parent="39" vertex="1"><mxGeometry y="34" width="160" height="26" as="geometry"/></mxCell><mxCell id="43" value=":Object" style="shape=umlLifeline;perimeter=lifelinePerimeter;whiteSpace=wrap;html=1;container=1;collapsible=0;recursiveResize=0;outlineConnect=0;rounded=0;" parent="1" vertex="1"><mxGeometry x="50" y="610" width="173" height="300" as="geometry"/></mxCell><mxCell id="44" value="" style="group;rounded=0;" parent="43" vertex="1" connectable="0"><mxGeometry x="10" y="80" width="80" height="173" as="geometry"/></mxCell><mxCell id="45" value="" style="html=1;points=[];perimeter=orthogonalPerimeter;rounded=0;" parent="44" vertex="1"><mxGeometry x="70" width="10" height="173" as="geometry"/></mxCell><mxCell id="46" value="dispatch" style="html=1;verticalAlign=bottom;endArrow=block;entryX=0;entryY=0;rounded=0;" parent="44" target="45" edge="1"><mxGeometry relative="1" as="geometry"><mxPoint as="sourcePoint"/></mxGeometry></mxCell><mxCell id="47" value="" style="group;rounded=0;" parent="43" vertex="1" connectable="0"><mxGeometry x="90" y="130" width="70" height="60" as="geometry"/></mxCell><mxCell id="48" value="" style="html=1;points=[];perimeter=orthogonalPerimeter;rounded=0;" parent="47" vertex="1"><mxGeometry width="10" height="60" as="geometry"/></mxCell><mxCell id="49" value="callback" style="html=1;verticalAlign=bottom;endArrow=block;entryX=1;entryY=0;rounded=0;" parent="47" target="48" edge="1"><mxGeometry relative="1" as="geometry"><mxPoint x="70" as="sourcePoint"/></mxGeometry></mxCell><mxCell id="50" value="return" style="html=1;verticalAlign=bottom;endArrow=open;dashed=1;endSize=8;exitX=1;exitY=0.95;rounded=0;" parent="47" source="48" edge="1"><mxGeometry relative="1" as="geometry"><mxPoint x="70" y="57" as="targetPoint"/></mxGeometry></mxCell><mxCell id="51" value=":Object" style="shape=umlLifeline;perimeter=lifelinePerimeter;whiteSpace=wrap;html=1;container=1;collapsible=0;recursiveResize=0;outlineConnect=0;rounded=0;" parent="1" vertex="1"><mxGeometry x="260" y="610" width="100" height="300" as="geometry"/></mxCell><mxCell id="52" value="" style="group;rounded=0;" parent="51" vertex="1" connectable="0"><mxGeometry x="-30" y="103" width="80" height="150" as="geometry"/></mxCell><mxCell id="53" value="" style="html=1;points=[];perimeter=orthogonalPerimeter;rounded=0;" parent="52" vertex="1"><mxGeometry x="70" width="10" height="150" as="geometry"/></mxCell><mxCell id="54" value="dispatch" style="html=1;verticalAlign=bottom;endArrow=block;entryX=0;entryY=0;rounded=0;" parent="1" source="43" target="53" edge="1"><mxGeometry relative="1" as="geometry"><mxPoint x="230" y="713" as="sourcePoint"/></mxGeometry></mxCell><mxCell id="55" value="return" style="html=1;verticalAlign=bottom;endArrow=open;dashed=1;endSize=8;exitX=0;exitY=0.95;rounded=0;" parent="1" source="53" target="43" edge="1"><mxGeometry relative="1" as="geometry"><mxPoint x="240" y="856" as="targetPoint"/></mxGeometry></mxCell><mxCell id="56" value="" style="endArrow=block;dashed=1;endFill=0;endSize=12;html=1;" edge="1" parent="1"><mxGeometry width="160" relative="1" as="geometry"><mxPoint x="560" y="120.00000000000003" as="sourcePoint"/><mxPoint x="720" y="120.00000000000003" as="targetPoint"/></mxGeometry></mxCell><mxCell id="57" value="" style="endArrow=block;endSize=16;endFill=0;html=1;" edge="1" parent="1"><mxGeometry width="160" relative="1" as="geometry"><mxPoint x="560" y="80.00000000000003" as="sourcePoint"/><mxPoint x="720" y="80.00000000000003" as="targetPoint"/></mxGeometry></mxCell><mxCell id="58" value="" style="endArrow=diamondThin;endFill=1;endSize=24;html=1;" edge="1" parent="1"><mxGeometry width="160" relative="1" as="geometry"><mxPoint x="560" y="199.00000000000003" as="sourcePoint"/><mxPoint x="720" y="199.00000000000003" as="targetPoint"/></mxGeometry></mxCell><mxCell id="59" value="" style="endArrow=diamondThin;endFill=0;endSize=24;html=1;" edge="1" parent="1"><mxGeometry width="160" relative="1" as="geometry"><mxPoint x="560" y="239.00000000000003" as="sourcePoint"/><mxPoint x="720" y="239.00000000000003" as="targetPoint"/></mxGeometry></mxCell><mxCell id="60" value="" style="endArrow=open;endFill=1;endSize=12;html=1;" edge="1" parent="1"><mxGeometry width="160" relative="1" as="geometry"><mxPoint x="560" y="40.00000000000003" as="sourcePoint"/><mxPoint x="720" y="40.00000000000003" as="targetPoint"/></mxGeometry></mxCell><mxCell id="61" value="" style="endArrow=open;endSize=12;dashed=1;html=1;" edge="1" parent="1"><mxGeometry width="160" relative="1" as="geometry"><mxPoint x="560" y="160.00000000000003" as="sourcePoint"/><mxPoint x="720" y="160.00000000000003" as="targetPoint"/></mxGeometry></mxCell><mxCell id="62" value="Abstract" style="swimlane;fontStyle=0;childLayout=stackLayout;horizontal=1;startSize=30;horizontalStack=0;resizeParent=1;resizeParentMax=0;resizeLast=0;collapsible=1;marginBottom=0;fillColor=#f5f5f5;strokeColor=#666666;fontColor=#333333;" vertex="1" parent="1"><mxGeometry x="200" y="10" width="140" height="60" as="geometry"/></mxCell><mxCell id="63" value="method" style="text;strokeColor=none;fillColor=none;align=left;verticalAlign=middle;spacingLeft=4;spacingRight=4;overflow=hidden;points=[[0,0.5],[1,0.5]];portConstraint=eastwest;rotatable=0;" vertex="1" parent="62"><mxGeometry y="30" width="140" height="30" as="geometry"/></mxCell></root></mxGraphModel></diagram></mxfile>